:FULLY-SPECIFIED
:FORCE-ALL-JOINTS-BE-3DOF
:DEGREES
1053
root 1.2068 15.1596 32.5514 4.90242 -3.42994 363.463
lfemur 8.73463 0.497749 5.63583
ltibia 0.121248 0 0
lfoot -30.4398 -11.2027 0
ltoes -34.1926 0 0
rfemur -31.0873 -15.6741 -6.31838
rtibia 50.0176 0 0
rfoot -21.8594 5.46149 0
rtoes -40.938 0 0
lowerback -1.82307 -0.0542732 -0.25731
upperback -0.487408 -0.0348904 -6.04557
thorax 0.51845 -0.0192569 -6.12211
lowerneck -6.98031 0.760125 6.56594
upperneck 1.24779 0.331678 3.65126
head 1.57732 0.290316 0.0481209
lclavicle -5.37901e-15 4.65044e-14 0
lhumerus -58.7042 -46.8374 115.402
lradius 55.8011 0 0
lwrist 25.5275 0 0
lhand 37.4199 25.3232 0
lfingers 7.12502 0 0
lthumb 60.2242 38.8659 0
rclavicle -5.37901e-15 4.65044e-14 0
rhumerus 2.17415 -23.5228 0.603075
rradius 27.4924 0 0
rwrist -9.73332 0 0
rhand -30.5341 -42.0498 0
rfingers 7.12502 0 0
rthumb -3.83325 -791.995 0
1054
root 1.20869 15.16 32.5556 4.90611 -3.43334 363.454
lfemur 8.71144 0.504643 5.62342
ltibia 0.199115 0 0
lfoot -30.487 -11.1858 0
ltoes -34.1944 0 0
rfemur -31.0631 -15.6543 -6.32242
rtibia 49.9998 0 0
rfoot -21.8541 5.45812 0
rtoes -40.9215 0 0
lowerback -1.83501 -0.0550688 -0.268567
upperback -0.488596 -0.035406 -6.03944
thorax 0.523904 -0.0194667 -6.10919
lowerneck -6.98307 0.757791 6.55992
upperneck 1.25391 0.328393 3.65503
head 1.57973 0.288979 0.0502117
lclavicle -4.91341e-15 4.55478e-14 0
lhumerus -58.6978 -46.8355 115.408
lradius 55.7976 0 0
lwrist 25.5318 0 0
lhand 37.4255 25.3226 0
lfingers 7.12502 0 0
lthumb 60.2289 38.8603 0
rclavicle -4.91341e-15 4.55478e-14 0
rhumerus 2.16647 -23.5023 0.604086
rradius 27.4949 0 0
rwrist -9.71235 0 0
rhand -30.541 -42.0326 0
rfingers 7.12502 0 0
rthumb -3.83991 -791.978 0
1055
root 1.21058 15.1604 32.5597 4.90989 -3.43725 363.443
lfemur 8.68439 0.512286 5.61003
ltibia 0.286743 0 0
lfoot -30.5391 -11.1658 0
ltoes -34.1975 0 0
rfemur -31.0378 -15.6337 -6.32565
rtibia 49.9805 0 0
rfoot -21.8496 5.45397 0
rtoes -40.9067 0 0
lowerback -1.84719 -0.0561153 -0.279501
upperback -0.490064 -0.0362704 -6.03236
thorax 0.529165 -0.0198598 -6.09546
lowerneck -6.98696 0.755744 6.55239
upperneck 1.26286 0.325368 3.65902
head 1.58326 0.287882 0.0526435
lclavicle -4.2902e-15 4.43876e-14 0
lhumerus -58.6903 -46.8326 115.415
lradius 55.7932 0 0
lwrist 25.5353 0 0
lhand 37.4313 25.3208 0
lfingers 7.12502 0 0
lthumb 60.2339 38.8531 0
rclavicle -4.2902e-15 4.43876e-14 0
rhumerus 2.16039 -23.4808 0.603386
rradius 27.4977 0 0
rwrist -9.68958 0 0
rhand -30.5491 -42.0161 0
rfingers 7.12502 0 0
rthumb -3.84777 -791.961 0
1056
root 1.21248 15.1609 32.5638 4.91373 -3.44161 363.432
lfemur 8.65396 0.520575 5.59581
ltibia 0.38283 0 0
lfoot -30.5954 -11.1431 0
ltoes -34.2016 0 0
rfemur -31.0114 -15.6125 -6.32812
rtibia 49.9601 0 0
rfoot -21.8458 5.44914 0
rtoes -40.8937 0 0
lowerback -1.85953 -0.0573835 -0.290106
upperback -0.491778 -0.0374453 -6.02446
thorax 0.534234 -0.0204163 -6.08105
lowerneck -6.99186 0.753962 6.54353
upperneck 1.27431 0.322587 3.6632
head 1.58779 0.287003 0.055373
lclavicle -3.52755e-15 4.30488e-14 0
lhumerus -58.682 -46.8287 115.422
lradius 55.788 0 0
lwrist 25.5382 0 0
lhand 37.4375 25.3179 0
lfingers 7.12502 0 0
lthumb 60.2391 38.8446 0
rclavicle -3.52755e-15 4.30488e-14 0
rhumerus 2.15575 -23.4583 0.601148
rradius 27.5008 0 0
rwrist -9.66528 0 0
rhand -30.5584 -42.0002 0
rfingers 7.12502 0 0
rthumb -3.85666 -791.945 0
1057
root 1.21437 15.1613 32.5679 4.91762 -3.44634 363.42
lfemur 8.62064 0.529407 5.58091
ltibia 0.486075 0 0
lfoot -30.6554 -11.1181 0
ltoes -34.2068 0 0
rfemur -30.9842 -15.5907 -6.32992
rtibia 49.9387 0 0
rfoot -21.8426 5.44372 0
rtoes -40.8822 0 0
lowerback -1.87198 -0.0588443 -0.300375
upperback -0.493705 -0.0388924 -6.01586
thorax 0.539111 -0.0211164 -6.06609
lowerneck -6.99762 0.752423 6.53351
upperneck 1.28795 0.320034 3.66754
head 1.59318 0.286324 0.0583572
lclavicle -2.64361e-15 4.15558e-14 0
lhumerus -58.6729 -46.824 115.43
lradius 55.7821 0 0
lwrist 25.5404 0 0
lhand 37.4438 25.314 0
lfingers 7.12502 0 0
lthumb 60.2445 38.8349 0
rclavicle -2.64361e-15 4.15558e-14 0
rhumerus 2.15244 -23.435 0.59755
rradius 27.5041 0 0
rwrist -9.6397 0 0
rhand -30.5685 -41.985 0
rfingers 7.12502 0 0
rthumb -3.86644 -791.93 0
1058
root 1.21626 15.1617 32.572 4.92152 -3.45139 363.407
lfemur 8.58492 0.538679 5.56547
ltibia 0.595176 0 0
lfoot -30.7182 -11.0912 0
ltoes -34.2128 0 0
rfemur -30.9564 -15.5687 -6.3311
rtibia 49.9166 0 0
rfoot -21.8401 5.43781 0
rtoes -40.8722 0 0
lowerback -1.88445 -0.0604687 -0.3103
upperback -0.495812 -0.0405733 -6.00668
thorax 0.543797 -0.02194 -6.05072
lowerneck -7.00414 0.751105 6.52251
upperneck 1.30346 0.317696 3.67199
head 1.59932 0.285823 0.0615527
lclavicle -1.65655e-15 3.99336e-14 0
lhumerus -58.6631 -46.8186 115.438
lradius 55.7757 0 0
lwrist 25.5422 0 0
lhand 37.4503 25.3093 0
lfingers 7.12502 0 0
lthumb 60.2501 38.8242 0
rclavicle -1.65655e-15 3.99336e-14 0
rhumerus 2.15029 -23.4111 0.592765
rradius 27.5076 0 0
rwrist -9.61311 0 0
rhand -30.5794 -41.9705 0
rfingers 7.12502 0 0
rthumb -3.87696 -791.915 0
1059
root 1.21816 15.1622 32.5762 4.92543 -3.45668 363.394
lfemur 8.54729 0.548287 5.54964
ltibia 0.708832 0 0
lfoot -30.7833 -11.0628 0
ltoes -34.2195 0 0
rfemur -30.9283 -15.5465 -6.33175
rtibia 49.894 0 0
rfoot -21.838 5.43149 0
rtoes -40.8635 0 0
lowerback -1.89689 -0.0622276 -0.319875
upperback -0.498064 -0.0424498 -5.99703
thorax 0.548292 -0.0228672 -6.03506
lowerneck -7.01127 0.749988 6.51072
upperneck 1.32052 0.315555 3.67652
head 1.60608 0.285481 0.0649164
lclavicle -5.84514e-16 3.82068e-14 0
lhumerus -58.6528 -46.8126 115.447
lradius 55.7688 0 0
lwrist 25.5434 0 0
lhand 37.457 25.3038 0
lfingers 7.12502 0 0
lthumb 60.2558 38.8127 0
rclavicle -5.84514e-16 3.82068e-14 0
rhumerus 2.14919 -23.3869 0.58697
rradius 27.5113 0 0
rwrist -9.58578 0 0
rhand -30.5909 -41.9566 0
rfingers 7.12502 0 0
rthumb -3.88808 -791.901 0
1060
root 1.22005 15.1626 32.5803 4.9293 -3.46216 363.381
lfemur 8.50823 0.558129 5.53358
ltibia 0.825742 0 0
lfoot -30.8498 -11.0333 0
ltoes -34.2267 0 0
rfemur -30.9 -15.5243 -6.33193
rtibia 49.871 0 0
rfoot -21.8364 5.42486 0
rtoes -40.856 0 0
lowerback -1.90923 -0.0640918 -0.329093
upperback -0.500429 -0.0444834 -5.98705
thorax 0.552597 -0.0238782 -6.01925
lowerneck -7.01889 0.74905 6.49832
upperneck 1.33882 0.313598 3.68109
head 1.61333 0.285277 0.0684052
lclavicle 5.54328e-16 3.64002e-14 0
lhumerus -58.6422 -46.8061 115.455
lradius 55.7615 0 0
lwrist 25.5443 0 0
lhand 37.4637 25.2978 0
lfingers 7.12502 0 0
lthumb 60.2615 38.8006 0
rclavicle 5.54328e-16 3.64002e-14 0
rhumerus 2.14898 -23.3624 0.58034
rradius 27.5151 0 0
rwrist -9.55797 0 0
rhand -30.6029 -41.9434 0
rfingers 7.12502 0 0
rthumb -3.89964 -791.888 0
1061
root 1.22194 15.163 32.5844 4.93313 -3.46775 363.367
lfemur 8.46823 0.5681 5.51741
ltibia 0.944604 0 0
lfoot -30.9172 -11.003 0
ltoes -34.2344 0 0
rfemur -30.8717 -15.5022 -6.33171
rtibia 49.8478 0 0
rfoot -21.8352 5.41802 0
rtoes -40.8495 0 0
lowerback -1.92139 -0.0660323 -0.337947
upperback -0.502872 -0.0466358 -5.97684
thorax 0.556711 -0.024953 -6.00342
lowerneck -7.02687 0.748269 6.48548
upperneck 1.35804 0.311808 3.68566
head 1.62094 0.285192 0.0719757
lclavicle 1.74182e-15 3.45384e-14 0
lhumerus -58.6313 -46.7993 115.463
lradius 55.754 0 0
lwrist 25.5448 0 0
lhand 37.4704 25.2913 0
lfingers 7.12502 0 0
lthumb 60.2672 38.788 0
rclavicle 1.74182e-15 3.45384e-14 0
rhumerus 2.14953 -23.338 0.57305
rradius 27.5189 0 0
rwrist -9.52995 0 0
rhand -30.6151 -41.9307 0
rfingers 7.12502 0 0
rthumb -3.9115 -791.875 0
1062
root 1.22384 15.1635 32.5885 4.93689 -3.4734 363.353
lfemur 8.42779 0.578098 5.5013
ltibia 1.06412 0 0
lfoot -30.9848 -10.9722 0
ltoes -34.2424 0 0
rfemur -30.8437 -15.4804 -6.33117
rtibia 49.8248 0 0
rfoot -21.8343 5.41105 0
rtoes -40.844 0 0
lowerback -1.93332 -0.0680199 -0.34643
upperback -0.50536 -0.0488687 -5.96654
thorax 0.560637 -0.0260716 -5.98769
lowerneck -7.03509 0.747623 6.47239
upperneck 1.37785 0.310171 3.6902
head 1.6288 0.285204 0.0755849
lclavicle 2.9598e-15 3.26463e-14 0
lhumerus -58.6203 -46.7922 115.472
lradius 55.7463 0 0
lwrist 25.545 0 0
lhand 37.477 25.2845 0
lfingers 7.12502 0 0
lthumb 60.2728 38.7751 0
rclavicle 2.9598e-15 3.26463e-14 0
rhumerus 2.1507 -23.3138 0.565275
rradius 27.5228 0 0
rwrist -9.50197 0 0
rhand -30.6276 -41.9187 0
rfingers 7.12502 0 0
rthumb -3.92351 -791.862 0
1063
root 1.22573 15.1639 32.5926 4.94056 -3.47903 363.34
lfemur 8.38738 0.58802 5.48539
ltibia 1.18298 0 0
lfoot -31.0518 -10.9415 0
ltoes -34.2505 0 0
rfemur -30.8162 -15.459 -6.33038
rtibia 49.802 0 0
rfoot -21.8337 5.40405 0
rtoes -40.8392 0 0
lowerback -1.94494 -0.0700256 -0.354536
upperback -0.507859 -0.0511438 -5.95626
thorax 0.564373 -0.0272141 -5.97221
lowerneck -7.04341 0.747092 6.45922
upperneck 1.39795 0.308671 3.69467
head 1.63676 0.285294 0.0791895
lclavicle 4.19012e-15 3.07485e-14 0
lhumerus -58.6093 -46.785 115.48
lradius 55.7386 0 0
lwrist 25.5449 0 0
lhand 37.4836 25.2776 0
lfingers 7.12502 0 0
lthumb 60.2784 38.7621 0
rclavicle 4.19012e-15 3.07485e-14 0
rhumerus 2.15235 -23.29 0.557191
rradius 27.5266 0 0
rwrist -9.4743 0 0
rhand -30.64 -41.9073 0
rfingers 7.12502 0 0
rthumb -3.93552 -791.851 0
1064
root 1.22762 15.1643 32.5967 4.94411 -3.48458 363.327
lfemur 8.3475 0.597762 5.46982
ltibia 1.29989 0 0
lfoot -31.1175 -10.9112 0
ltoes -34.2586 0 0
rfemur -30.7895 -15.4382 -6.32941
rtibia 49.7798 0 0
rfoot -21.8333 5.39711 0
rtoes -40.835 0 0
lowerback -1.95619 -0.0720203 -0.362258
upperback -0.510337 -0.0534227 -5.94612
thorax 0.567921 -0.0283606 -5.9571
lowerneck -7.0517 0.746653 6.44616
upperneck 1.41802 0.307293 3.69903
head 1.64472 0.285441 0.0827463
lclavicle 5.4146e-15 2.88697e-14 0
lhumerus -58.5984 -46.7778 115.488
lradius 55.7309 0 0
lwrist 25.5447 0 0
lhand 37.4899 25.2705 0
lfingers 7.12502 0 0
lthumb 60.2839 38.7493 0
rclavicle 5.4146e-15 2.88697e-14 0
rhumerus 2.15435 -23.2668 0.548974
rradius 27.5304 0 0
rwrist -9.4472 0 0
rhand -30.6523 -41.8965 0
rfingers 7.12502 0 0
rthumb -3.94738 -791.84 0
1065
root 1.22952 15.1648 32.6009 4.94753 -3.48998 363.314
lfemur 8.30863 0.607222 5.45474
ltibia 1.41354 0 0
lfoot -31.1813 -10.8816 0
ltoes -34.2666 0 0
rfemur -30.7636 -15.4182 -6.32834
rtibia 49.7582 0 0
rfoot -21.8331 5.39034 0
rtoes -40.8314 0 0
lowerback -1.96699 -0.0739748 -0.369589
upperback -0.512758 -0.0556671 -5.93624
thorax 0.571282 -0.0294912 -5.94249
lowerneck -7.05985 0.746285 6.43338
upperneck 1.43774 0.306021 3.70324
head 1.65254 0.285626 0.0862122
lclavicle 6.6151e-15 2.70347e-14 0
lhumerus -58.5879 -46.7708 115.496
lradius 55.7234 0 0
lwrist 25.5443 0 0
lhand 37.4961 25.2636 0
lfingers 7.12502 0 0
lthumb 60.2891 38.7367 0
rclavicle 6.6151e-15 2.70347e-14 0
rhumerus 2.15655 -23.2443 0.540799
rradius 27.534 0 0
rwrist -9.42094 0 0
rhand -30.6643 -41.8862 0
rfingers 7.12502 0 0
rthumb -3.95895 -791.829 0
